<svg width="100" height="30" xmlns="http://www.w3.org/2000/svg" preserveAspectRatio="xMidYMid meet" version="1.0">
 <g>
  <title>Layer 1</title>
  <path id="svg_24" d="m553.11368,107.9c-0.4,0.5 0.3,0.7 1.4,0.4c2.3,-0.6 2.6,-1.3 0.6,-1.3c-0.8,0 -1.7,0.4 -2,0.9z"/>
  <g stroke="null" id="svg_32">
   <path stroke="null" id="svg_2" d="m80.71193,4.34768c-0.62283,1.876 -0.57233,2.31287 0.0505,0.59107c0.28616,-0.77096 0.48816,-1.54191 0.4545,-1.67041c-0.03367,-0.15419 -0.26933,0.33408 -0.505,1.07934z"/>
   <path stroke="null" id="svg_3" d="m80.82977,6.24938c-2.15465,6.47604 -3.78748,11.05039 -3.88847,10.8962c-0.08417,-0.12849 0.6565,-2.62126 2.25565,-7.58108c0.47133,-1.49052 0.84166,-2.74975 0.82483,-2.77545c-0.03367,-0.0771 -1.49816,4.00898 -2.76065,7.70957c-0.23567,0.66816 -0.4545,1.15644 -0.48816,1.10504c-0.0505,-0.0514 0.08417,-0.59107 0.28616,-1.18213c0.202,-0.59107 0.33666,-1.13074 0.303,-1.18213c-0.06733,-0.0771 -1.48132,3.85479 -1.48132,4.11177c0,0.0771 0.31983,0.25699 0.72383,0.43688c0.38716,0.15419 1.07733,0.61677 1.54866,1.05364c0.80799,0.77096 0.85849,0.77096 1.31299,0.35978c1.24566,-1.07934 3.04681,-0.69386 4.25881,0.89945c0.42083,0.56537 0.90899,1.00224 1.09416,1.00224c0.4545,0 0.404,0.56537 -0.202,2.18438c-0.5555,1.49052 -0.53866,1.92739 0.08417,1.92739c0.21883,0 0.82483,0.35978 1.34666,0.77096l0.95949,0.79666l1.00999,-0.56537c0.89216,-0.48827 1.09416,-0.53967 1.71699,-0.25699c0.38716,0.17989 1.09416,0.64246 1.54866,1.05364c0.606,0.51397 0.99316,0.66816 1.39716,0.59107c0.28616,-0.0771 0.53866,-0.23129 0.53866,-0.35978c0,-0.12849 0.28616,-1.18213 0.63966,-2.36427c0.606,-1.97879 1.26249,-4.36876 1.83482,-6.73303c0.1515,-0.56537 0.58916,-2.15868 0.99316,-3.5464c0.404,-1.36202 0.7575,-2.62126 0.79116,-2.80115c0.01683,-0.15419 -0.18517,-0.35978 -0.4545,-0.48827c-0.26933,-0.10279 -0.6565,-0.46257 -0.87533,-0.77096c-0.42083,-0.59107 -1.59916,-0.92515 -2.33982,-0.64246c-0.2525,0.10279 -0.63966,0.48827 -0.85849,0.84805c-0.21883,0.35978 -0.404,0.53967 -0.404,0.35978c0,-0.15419 -0.16833,-0.28268 -0.38716,-0.28268c-0.4545,0 -1.12783,-0.66816 -1.12783,-1.13074c0,-0.17989 0.23567,-1.18213 0.505,-2.21008c0.5555,-2.03019 0.58916,-2.31287 0.33666,-2.31287c-0.08417,0 -0.16833,0.15419 -0.16833,0.35978c0,0.17989 -0.11783,0.48827 -0.2525,0.66816c-0.13467,0.17989 -0.2525,0.53967 -0.2525,0.79666c0,0.25699 -0.1515,0.66816 -0.31983,0.92515c-0.18517,0.25699 -0.3535,0.74526 -0.38716,1.07934c-0.03367,0.53967 -0.1515,0.64246 -0.606,0.64246c-0.63966,0.0257 -0.43766,-0.41118 -2.52498,5.4995c-0.67333,1.876 -1.21199,3.52071 -1.21199,3.6492c0,0.12849 -0.1515,0.41118 -0.3535,0.61677c-0.202,0.20559 -0.303,0.48827 -0.23567,0.66816c0.101,0.23129 0.03367,0.23129 -0.21883,0.0257c-0.43766,-0.35978 -0.42083,-1.7218 0.01683,-1.67041c0.16833,0.0257 0.28616,-0.12849 0.28616,-0.43688c0,-0.25699 0.08417,-0.53967 0.18517,-0.64246c0.11783,-0.10279 0.13467,-0.23129 0.01683,-0.33408c-0.202,-0.17989 0.6565,-3.46931 1.09416,-4.18887c0.1515,-0.25699 0.21883,-0.46257 0.1515,-0.46257c-0.06733,0 0.18517,-0.87375 0.5555,-1.95309c0.38716,-1.07934 0.69016,-2.10728 0.69016,-2.31287c0,-0.17989 0.101,-0.43688 0.23567,-0.53967c0.11783,-0.10279 0.31983,-0.48827 0.43766,-0.84805c0.18517,-0.53967 0.18517,-0.66816 -0.08417,-0.89945c-0.16833,-0.12849 -0.505,-0.51397 -0.77433,-0.84805c-0.69016,-0.87375 -1.46449,-1.15644 -1.78432,-0.66816c-0.1515,0.20559 -0.21883,0.46257 -0.1515,0.53967c0.0505,0.10279 -0.01683,0.38548 -0.18517,0.64246c-0.1515,0.28268 -0.18517,0.46257 -0.08417,0.46257c0.11783,0 0.202,0.17989 0.202,0.41118c0,0.30838 -0.101,0.38548 -0.404,0.25699c-0.23567,-0.0771 -0.47133,-0.0514 -0.52183,0.10279c-0.0505,0.12849 0,0.25699 0.13467,0.25699c0.21883,0 0.21883,0.10279 0.06733,0.64246c-0.11783,0.35978 -0.303,0.64246 -0.43766,0.64246c-0.11783,0 -0.18517,0.15419 -0.11783,0.38548c0.11783,0.46257 -0.3535,2.18438 -0.58916,2.18438c-0.11783,0 -0.1515,0.23129 -0.101,0.53967c0.11783,0.61677 -0.13467,1.36202 -0.69016,2.13298c-0.31983,0.46257 -0.3535,0.64246 -0.21883,1.38772c0.13467,0.71956 0.13467,0.84805 -0.06733,0.71956c-0.1515,-0.0771 -0.37033,0.23129 -0.606,0.87375c-0.33666,0.89945 -0.47133,1.02794 -0.97633,1.05364c-0.94266,0.0257 -1.19516,0.15419 -1.63282,0.77096c-0.303,0.43688 -0.404,0.48827 -0.404,0.20559c0,-0.20559 0.08417,-0.51397 0.202,-0.69386c0.1515,-0.23129 0.1515,-0.30838 0,-0.30838c-0.11783,0 -0.2525,0.17989 -0.303,0.38548c-0.06733,0.20559 -0.16833,0.38548 -0.23567,0.38548c-0.16833,0 0.67333,-2.87824 2.62598,-8.89171c0.77433,-2.38997 1.41399,-4.47155 1.41399,-4.62574c0,-0.28268 -1.02683,-1.38772 -1.29616,-1.38772c-0.101,0 -0.62283,1.31063 -1.16149,2.87824zm8.04628,7.96656c-0.63966,1.876 -1.71699,5.06262 -2.39032,7.06711c-0.6565,2.03019 -1.27932,3.6749 -1.36349,3.6749c-0.18517,0 -0.202,-0.33408 0,-0.66816c0.06733,-0.12849 0.90899,-2.51846 1.85165,-5.31961c0.94266,-2.80115 1.88532,-5.5252 2.08732,-6.03917c0.202,-0.51397 0.48816,-1.25923 0.606,-1.64471c0.13467,-0.41118 0.26933,-0.66816 0.31983,-0.61677c0.03367,0.0771 -0.4545,1.67041 -1.11099,3.5464zm-0.06733,-1.8503c-0.11783,0.25699 -0.23567,0.43688 -0.28616,0.38548c-0.06733,-0.10279 0.303,-0.89945 0.42083,-0.89945c0.03367,0 -0.01683,0.23129 -0.13467,0.51397zm3.31614,0.43688c-0.23567,0.69386 -0.43766,1.876 -0.4545,2.64695c-0.01683,0.20559 -0.1515,0.53967 -0.33666,0.71956c-0.16833,0.17989 -0.303,0.46257 -0.303,0.64246c0,0.20559 0.0505,0.20559 0.202,-0.0257c0.31983,-0.48827 0.404,-0.35978 0.42083,0.74526c0.01683,0.69386 -0.0505,1.07934 -0.21883,1.18213c-0.11783,0.0771 -0.23567,0.33408 -0.23567,0.56537c0,0.23129 -0.18517,0.97655 -0.42083,1.69611c-0.21883,0.69386 -0.42083,1.38772 -0.42083,1.49052c0,0.12849 -0.101,0.59107 -0.23567,1.02794c-0.13467,0.46257 -0.26933,0.97655 -0.303,1.18213c-0.11783,0.64246 -2.79431,1.46482 -3.11415,0.95085c-0.11783,-0.15419 0.79116,-2.46706 0.97633,-2.46706c0.08417,0 0.1515,0.17989 0.1515,0.43688c0,0.38548 0.01683,0.38548 0.31983,-0.0257c0.303,-0.41118 0.58916,-1.23353 2.60915,-7.60678c0.52183,-1.61901 1.00999,-3.16093 1.11099,-3.41791c0.28616,-0.71956 0.505,-0.48827 0.2525,0.25699zm-3.90531,1.23353c-0.0505,0.23129 -0.13467,0.35978 -0.16833,0.28268c-0.0505,-0.0771 -0.03367,-0.23129 0.03367,-0.38548c0.1515,-0.41118 0.2525,-0.33408 0.13467,0.10279zm-0.53866,1.59331c-0.202,0.51397 -0.23567,0.35978 -0.08417,-0.30838c0.06733,-0.23129 0.1515,-0.35978 0.18517,-0.28268c0.0505,0.0514 0,0.33408 -0.101,0.59107zm-11.12676,1.10504c0,0.12849 -0.08417,0.25699 -0.18517,0.25699c-0.08417,0 -0.11783,-0.12849 -0.06733,-0.25699c0.0505,-0.15419 0.13467,-0.25699 0.18517,-0.25699c0.03367,0 0.06733,0.10279 0.06733,0.25699zm10.26827,1.64471c0,0.0771 -0.06733,0.20559 -0.16833,0.28268c-0.08417,0.0771 -0.16833,0.0257 -0.16833,-0.10279c0,-0.15419 0.08417,-0.28268 0.16833,-0.28268c0.101,0 0.16833,0.0514 0.16833,0.10279zm-0.67333,1.64471c0,0.12849 -0.11783,0.43688 -0.2525,0.71956c-0.23567,0.46257 -0.23567,0.43688 -0.06733,-0.23129c0.202,-0.69386 0.31983,-0.87375 0.31983,-0.48827zm-0.67333,2.13298c-0.11783,0.28268 -0.23567,0.46257 -0.28616,0.38548c-0.0505,-0.0771 0,-0.30838 0.11783,-0.53967c0.303,-0.53967 0.38716,-0.48827 0.16833,0.15419zm-0.6565,1.7989c-0.202,0.48827 -0.3535,0.77096 -0.3535,0.66816c0,-0.35978 0.52183,-1.7732 0.606,-1.64471c0.0505,0.0771 -0.06733,0.51397 -0.2525,0.97655z"/>
   <path stroke="null" id="svg_4" d="m15.28119,4.52757c-0.21883,0.35978 -0.31983,0.64246 -0.23567,0.64246c0.13467,-0.0257 0.84166,-1.28493 0.69016,-1.28493c-0.03367,0 -0.23567,0.28268 -0.4545,0.64246z"/>
   <path stroke="null" id="svg_5" d="m14.63031,6.03522c-0.63966,1.46482 -2.91215,7.78667 -4.3093,12.02694c-0.37033,1.13074 -0.74066,2.54416 -0.79116,3.13523c-0.101,1.00224 -0.06733,1.13074 0.28616,1.33633c0.57233,0.33408 0.97633,-0.10279 0.97633,-1.07934c0.01683,-1.9017 1.29616,-4.62574 2.72698,-5.73078c0.43766,-0.33408 0.87533,-0.61677 0.97633,-0.61677c0.26933,0 0.202,1.18213 -0.101,1.56761c-0.38716,0.48827 -0.74066,1.64471 -0.74066,2.41567c0,0.97655 -0.90899,3.5464 -1.54866,4.36876c-0.303,0.41118 -0.97633,1.02794 -1.48132,1.38772c-1.24566,0.89945 -3.53498,0.95085 -4.73014,0.12849c-1.63282,-1.15644 -2.76065,-3.5464 -2.96265,-6.29615c-0.11783,-1.7218 -0.303,-2.13298 -0.7575,-1.7475c-0.303,0.25699 -0.33666,0.46257 -0.26933,2.00449c0.303,6.27045 5.3698,10.27943 9.32561,7.34979c2.25565,-1.69611 3.14781,-3.85479 3.45081,-8.50623c0.202,-2.82684 0.21883,-2.98104 0.63966,-3.23802c0.48816,-0.30838 1.63282,-0.30838 1.91899,-0.0257c0.11783,0.10279 0.47133,0.33408 0.79116,0.51397c0.48816,0.25699 0.62283,0.25699 0.84166,-0.0514c0.21883,-0.33408 0.1515,-0.38548 -0.47133,-0.38548c-0.74066,0 -0.97633,-0.41118 -0.31983,-0.56537c0.28616,-0.0771 0.202,-0.17989 -0.38716,-0.43688c-1.29616,-0.59107 -3.23198,-0.25699 -4.67964,0.79666c-0.6565,0.48827 -1.21199,0.84805 -1.21199,0.82235c0,-0.0514 0.08417,-0.38548 0.18517,-0.79666c0.13467,-0.53967 0.202,-0.61677 0.31983,-0.33408c0.08417,0.20559 0.202,0.28268 0.26933,0.17989c0.06733,-0.0771 0.03367,-0.30838 -0.06733,-0.51397c-0.13467,-0.23129 -0.0505,-0.61677 0.303,-1.51622c0.26933,-0.66816 0.62283,-1.33633 0.79116,-1.49052c0.202,-0.20559 0.21883,-0.25699 0.0505,-0.17989c-0.21883,0.10279 -0.202,-0.0771 0.08417,-1.00224c0.21883,-0.71956 0.42083,-1.07934 0.5555,-1.00224c0.13467,0.0771 0.33666,0.12849 0.4545,0.12849c0.11783,0 0.26933,0.20559 0.303,0.43688c0.06733,0.41118 0.08417,0.41118 0.101,0.0257c0,-0.23129 -0.16833,-0.64246 -0.38716,-0.92515c-0.38716,-0.46257 -0.404,-0.53967 -0.16833,-1.05364c0.1515,-0.30838 0.31983,-0.48827 0.38716,-0.41118c0.08417,0.0514 0.101,-0.17989 0.0505,-0.56537c-0.0505,-0.46257 -0.01683,-0.61677 0.101,-0.48827c0.13467,0.12849 0.16833,0.0514 0.101,-0.20559c-0.13467,-0.53967 -0.13467,-0.53967 -0.606,0.53967z" fill="#a7473b"/>
   <path stroke="null" id="svg_8" d="m14.94453,7.5857c0,0.0514 0.13467,0.25699 0.303,0.43688c0.2525,0.33408 0.26933,0.30838 0.0505,-0.10279c-0.21883,-0.41118 -0.3535,-0.53967 -0.3535,-0.33408z"/>
   <path stroke="null" id="svg_13" d="m15.53369,11.33769c0.0505,0.12849 0.13467,0.25699 0.18517,0.25699c0.03367,0 0.06733,-0.12849 0.06733,-0.25699c0,-0.15419 -0.08417,-0.25699 -0.18517,-0.25699c-0.08417,0 -0.11783,0.10279 -0.06733,0.25699z" fill="#a7473b" fill-opacity="0"/>
   <path stroke="null" id="svg_14" d="m13.61471,11.77457c-0.1515,0.25699 -0.16833,0.46257 -0.0505,0.64246c0.11783,0.17989 0.23567,0.10279 0.3535,-0.25699c0.21883,-0.64246 0.01683,-0.92515 -0.303,-0.38548z" fill="none"/>
   <path stroke="null" id="svg_15" d="m77.73245,11.87736c-0.11783,0.28268 -0.16833,0.59107 -0.11783,0.64246c0.03367,0.0514 0.1515,-0.17989 0.2525,-0.53967c0.23567,-0.77096 0.11783,-0.84805 -0.13467,-0.10279z"/>
   <path stroke="null" id="svg_16" d="m14.10287,12.77681c0,0.20559 0.08417,0.30838 0.16833,0.23129c0.101,-0.10279 0.13467,-0.28268 0.08417,-0.41118c-0.1515,-0.35978 -0.2525,-0.28268 -0.2525,0.17989z" fill="#a7473b"/>
   <path stroke="#a7473b" id="svg_17" d="m12.58788,13.1366c0,0.12849 0.08417,0.25699 0.16833,0.25699c0.101,0 0.16833,-0.12849 0.16833,-0.25699c0,-0.15419 -0.06733,-0.25699 -0.16833,-0.25699c-0.08417,0 -0.16833,0.10279 -0.16833,0.25699z" fill="none"/>
   <path stroke="null" id="svg_18" d="m13.51371,13.65057c0.0505,0.12849 0.13467,0.25699 0.18517,0.25699c0.03367,0 0.06733,-0.12849 0.06733,-0.25699c0,-0.15419 -0.08417,-0.25699 -0.18517,-0.25699c-0.08417,0 -0.11783,0.10279 -0.06733,0.25699z"/>
   <path stroke="#a7473b" id="svg_19" d="m19.42217,15.37237c-0.23567,0.38548 -0.06733,1.05364 0.505,1.9017c0.7575,1.07934 1.58232,3.5464 1.58232,4.65144c0,1.07934 0.21883,1.61901 0.57233,1.41342c0.21883,-0.12849 0.26933,-0.38548 0.16833,-1.13074c-0.28616,-2.56986 -0.62283,-4.08607 -1.12783,-4.95983c-0.606,-1.05364 -1.54866,-2.10728 -1.70016,-1.876z" fill="#a7473b" stroke-opacity="0"/>
   <path stroke="#a7473b" id="svg_20" d="m18.81617,15.80925c0,0.23129 0.08417,0.41118 0.16833,0.41118c0.101,0 0.16833,-0.10279 0.16833,-0.23129c0,-0.15419 -0.06733,-0.33408 -0.16833,-0.41118c-0.08417,-0.0771 -0.16833,0.0257 -0.16833,0.23129z" fill="none"/>
   <path stroke="null" id="svg_21" d="m97.29266,21.10316c-0.26933,0.64246 -0.2525,0.77096 0.0505,0.77096c0.1515,0 0.202,-0.15419 0.13467,-0.43688c-0.06733,-0.28268 -0.0505,-0.35978 0.08417,-0.23129c0.11783,0.10279 0.202,0.0257 0.202,-0.20559c0,-0.56537 -0.21883,-0.51397 -0.47133,0.10279z"/>
   <path stroke="null" id="svg_22" d="m96.92233,22.61937c0,0.43688 0.303,0.53967 0.404,0.15419c0.0505,-0.23129 0,-0.38548 -0.1515,-0.38548c-0.13467,0 -0.2525,0.10279 -0.2525,0.23129z"/>
   <path stroke="null" id="svg_23" d="m96.56883,23.57022c-0.11783,0.23129 -0.2525,0.64246 -0.26933,0.95085c-0.03367,0.28268 -0.23567,0.89945 -0.47133,1.36202c-0.3535,0.69386 -0.37033,0.84805 -0.1515,0.97655c0.1515,0.0771 0.31983,0.15419 0.404,0.15419c0.21883,0 0.84166,-2.46706 0.80799,-3.18662c-0.0505,-0.79666 -0.03367,-0.77096 -0.31983,-0.25699z"/>
   <path stroke="#a7473b" fill="none" opacity="NaN" d="m2.12045,16.90571c0,0 9.20208,-13.53446 9.09032,-13.53461c0.11176,0.00015 4.37614,0.68544 4.37614,0.68544" id="svg_1"/>
   <path stroke="#a7473b" fill="none" opacity="NaN" d="m2.68155,16.90571" id="svg_26"/>
   <path stroke="#a7473b" fill="none" opacity="NaN" d="m2.4009,16.90535" id="svg_27"/>
   <path stroke="null" fill="#f29160" opacity="NaN" d="m2.39977,16.77613l0.39441,0.2575c0.0264,0.04231 0.11057,1.02738 0.11057,1.02738c0,0 0.19638,1.84167 0.16998,1.79937c0.0264,0.04231 0.27889,1.02738 0.27889,1.02738c0,0 0.25249,0.7281 0.22609,0.6858c0.0264,0.04231 0.335,0.8989 0.335,0.8989c0,0 0.3086,0.4283 0.33665,0.55679c0.02805,0.12849 0.36471,0.59961 0.33831,0.55731c0.0264,0.04231 0.335,0.42777 0.39111,0.42777c0.05611,0 0.39276,0.51396 0.36636,0.47165c0.0264,0.04231 0.39111,0.25645 0.41917,0.29928c0.02805,0.04283 0.47693,0.25698 0.53303,0.34264c0.05611,0.08566 0.67331,0.17132 0.6469,0.12901c0.0264,0.04231 0.44722,0.12796 0.42082,0.08566c0.0264,0.04231 0.39111,-0.00053 0.44722,0.08513c0.05611,0.08566 0.42082,0 0.39441,-0.04231c0.0264,0.04231 0.58749,0.04231 0.61555,-0.00053c0.02805,-0.04283 0.42082,-0.08566 0.39441,-0.12796c0.0264,0.04231 0.55944,-0.00053 0.58749,-0.00053c0.02805,0 0.39276,-0.29981 0.44887,-0.29981c0.05611,0 0.53303,-0.34264 0.53303,-0.34264c0,0 0.56109,-0.38547 0.53469,-0.42777c0.0264,0.04231 0.53138,-0.38599 0.53138,-0.38599c0,0 0.3086,-0.55679 0.3086,-0.55679c0,0 0.42082,-0.64244 0.39441,-0.68475c0.0264,0.04231 0.30695,-0.60014 0.28054,-0.64244c0.0264,0.04231 0.39111,-0.72863 0.39111,-0.72863c0,0 0.19638,-0.77093 0.19638,-0.77093c0,0 0.14027,-0.64244 0.14027,-0.7281c0,-0.08566 0.08416,-1.07074 0.08416,-1.07074c0,0 0.11222,-0.64244 0.11222,-0.64244c0,0 0.3086,-0.77093 0.3086,-0.77093c0,0 0.3086,-0.55679 0.2822,-0.59909c0.0264,0.04231 0.25084,-0.42882 0.25084,-0.42882c0,0 0.02805,-0.64244 0.00165,-0.68475c0.0264,0.04231 -0.02971,-0.47165 -0.05611,-0.51396c0.0264,0.04231 -0.25414,0.12796 -0.28054,0.08566c0.0264,0.04231 -0.25414,0.29928 -0.28054,0.25698c0.0264,0.04231 -0.33831,0.29928 -0.36471,0.25698c0.0264,0.04231 -0.33831,0.38494 -0.36471,0.34264c0.0264,0.04231 -0.2822,0.42777 -0.3086,0.38547c0.0264,0.04231 -0.25414,0.29928 -0.28054,0.25698c0.0264,0.04231 -0.22609,0.42777 -0.25249,0.38547c0.0264,0.04231 -0.31025,0.4706 -0.33665,0.4283c0.0264,0.04231 -0.14192,0.42777 -0.16833,0.38547c0.0264,0.04231 -0.22609,0.4706 -0.25249,0.4283c0.0264,0.04231 -0.14192,0.51343 -0.16833,0.47112c0.0264,0.04231 -0.22609,0.68475 -0.25249,0.64244c0.0264,0.04231 -0.25414,0.68475 -0.28054,0.64244c0.0264,0.04231 -0.08582,0.59909 -0.11222,0.55679c0.0264,0.04231 -0.02971,0.72758 -0.05611,0.68527c0.0264,0.04231 -0.00165,0.72758 -0.02805,0.68527c0.0264,0.04231 -0.14192,0.55626 -0.16833,0.51396c0.0264,0.04231 -0.2822,0.29928 -0.3086,0.25698c0.0264,0.04231 -0.25414,0.04231 -0.28054,0" id="svg_28"/>
   <ellipse stroke="#a7473b" fill="none" cx="15.97968" cy="3.62823" id="svg_25" rx="0.05611" ry="0.08566"/>
   <path stroke="#a7473b" fill="none" opacity="NaN" d="m5.51601,20.97492" id="svg_29"/>
   <path stroke="null" fill="#f29160" opacity="NaN" d="m2.31501,16.79716l1.20154,-1.76599l1.32556,-1.95943l1.05203,-1.54185l0.88371,-1.317l0.82058,-1.22063l1.05203,-1.57397l0.88371,-1.28487l1.38868,-2.08792l0.37873,-0.61032c0.01881,0.03141 0.65003,0.12778 0.65003,0.12778c0,0 0.7785,0.19273 0.7785,0.19273c0,0 1.05203,0.16061 1.05203,0.16061c0,0 1.15723,0.19273 1.13842,0.16132c0.01881,0.03141 0.65003,0.06353 0.63122,0.03212c0.01881,0.03141 -0.44408,0.64172 -0.46289,0.61032c0.01881,0.03141 -0.04431,0.449 -0.04431,0.449c0,0 -0.25249,0.51395 -0.25249,0.51395c0,0 -0.35769,0.83517 -0.3765,0.80376c0.01881,0.03141 -0.27576,0.73809 -0.27576,0.73809c0,0 -0.35769,0.99578 -0.3765,0.96436c0.01881,0.03141 -0.33888,1.02719 -0.35769,0.99578c0.01881,0.03141 -0.35992,1.15568 -0.37873,1.12426c0.01881,0.03141 -0.46512,1.15568 -0.48393,1.12426c0.01881,0.03141 -0.31784,1.05931 -0.33665,1.0279c0.01881,0.03141 -0.33888,1.09143 -0.35769,1.06002c0.01881,0.03141 -0.42304,1.25204 -0.44185,1.22063c0.01881,0.03141 -0.27576,0.83446 -0.29457,0.80304c0.01881,0.03141 -0.35992,1.3484 -0.37873,1.317c0.01881,0.03141 -0.5072,1.25204 -0.52601,1.22063c0.01881,0.03141 -0.25472,1.15568 -0.25472,1.15568c0,0 -0.39977,1.4776 -0.41858,1.44619c0.01881,0.03141 -0.06535,0.86658 -0.08416,0.83517c0.01881,0.03141 0.03985,0.67385 0.02104,0.64244c0.01881,0.03141 -0.73865,-0.51466 -0.75746,-0.54607c0.01881,0.03141 -1.28571,-0.99649 -1.28571,-0.99649c0,0 -1.78845,-1.38124 -1.80726,-1.41265c0.01881,0.03141 -1.83276,-1.41407 -1.85157,-1.44548c0.01881,0.03141 -0.84385,-0.61102 -0.86267,-0.64244c0.01881,0.03141 -0.25472,-0.19344 -0.25472,-0.19344c0,0 -0.16833,-0.19273 -0.16833,-0.19273" id="svg_30"/>
   <g stroke="null" id="svg_31">
    <path stroke="null" id="svg_6" d="m24.7078,7.43151c-0.13467,0.0514 -0.42083,0.35978 -0.62283,0.64246c-0.37033,0.51397 -0.38716,0.69386 -0.38716,4.54865l0,4.03468l0.48816,1.02794c0.62283,1.31063 1.43082,2.08159 2.57548,2.44137c2.00315,0.64246 4.09047,-1.31063 4.49447,-4.16317c0.23567,-1.69611 0.23567,-6.55314 0,-7.247c-0.18517,-0.51397 -1.09416,-1.23353 -1.58232,-1.23353c-0.1515,0 -0.43766,0.25699 -0.63966,0.56537c-0.33666,0.53967 -0.38716,0.87375 -0.43766,4.06038c-0.01683,1.9017 -0.11783,3.5978 -0.202,3.75199c-0.08417,0.17989 -0.404,0.46257 -0.69016,0.64246c-0.48816,0.30838 -0.53866,0.28268 -0.90899,-0.38548c-0.38716,-0.64246 -0.404,-0.89945 -0.404,-4.00898c0,-3.26372 0,-3.31512 -0.43766,-3.82909c-0.2525,-0.30838 -0.53866,-0.53967 -0.67333,-0.53967c-0.11783,0 -0.23567,-0.10279 -0.26933,-0.23129c-0.01683,-0.10279 -0.16833,-0.15419 -0.303,-0.0771z" fill="#06a506"/>
    <path stroke="null" id="svg_7" d="m59.21591,7.50861c-1.19516,0.20559 -2.12099,0.92515 -2.96265,2.33857c-1.36349,2.23578 -1.56549,4.75424 -0.606,7.14421c0.505,1.28493 1.73382,2.67265 2.69332,3.08383c1.46449,0.61677 3.60231,0.10279 4.94897,-1.18213c0.505,-0.48827 0.63966,-0.77096 0.63966,-1.36202c0,-0.87375 -0.26933,-1.36202 -0.99316,-1.8246c-0.47133,-0.28268 -0.63966,-0.25699 -1.54866,0.38548c-0.97633,0.66816 -1.83482,0.71956 -1.83482,0.15419c0,-0.23129 1.22883,-1.59331 3.40031,-3.80339c0.52183,-0.53967 0.95949,-1.13074 0.97633,-1.31063c0.03367,-1.8503 -2.71015,-3.98328 -4.7133,-3.6235zm1.44766,3.44361c0.08417,0.38548 -2.28932,3.00673 -2.55865,2.85254c-0.31983,-0.17989 -0.28616,-1.18213 0.06733,-1.9017c0.505,-1.00224 2.35665,-1.7218 2.49132,-0.95085z" fill="#06a506"/>
    <path stroke="null" fill="#06a506" id="svg_9" d="m35.58206,7.99688c-0.89216,0.69386 -1.41399,1.46482 -1.83482,2.69835c-0.28616,0.84805 -0.37033,1.59331 -0.42083,4.52295c-0.06733,3.41791 -0.06733,3.49501 0.3535,4.21457c0.33666,0.61677 0.5555,0.77096 1.12783,0.77096c1.19516,0 1.34666,-0.53967 1.34666,-4.65144c0,-3.18662 0.01683,-3.46931 0.37033,-3.95758c0.47133,-0.64246 1.04366,-0.66816 1.48132,0c0.303,0.46257 0.33666,0.84805 0.33666,3.98328c0,3.36651 0.01683,3.52071 0.42083,4.11177c0.58916,0.92515 1.90215,0.71956 2.20515,-0.35978c0.06733,-0.23129 0.1515,-1.92739 0.202,-3.75199c0.08417,-3.6749 -0.03367,-4.44585 -0.87533,-5.96207c-0.52183,-0.95085 -1.88532,-1.7989 -3.18148,-2.00449c-0.67333,-0.10279 -1.02683,-0.0257 -1.53182,0.38548z"/>
    <path stroke="null" id="svg_10" d="m43.66201,8.04828c-0.42083,0.59107 -0.42083,0.66816 -0.53866,5.65369l-0.11783,5.03692l0.43766,0.66816c0.707,1.07934 1.91899,0.79666 2.28932,-0.53967c0.13467,-0.48827 0.18517,-2.26148 0.1515,-5.4738l-0.0505,-4.72854l-0.67333,-0.59107c-0.84166,-0.71956 -0.97633,-0.71956 -1.49816,-0.0257z" fill="#06a506"/>
    <path stroke="null" id="svg_11" d="m47.81981,7.76559c-0.505,0.28268 -0.94266,1.36202 -0.80799,2.03019c0.1515,0.71956 0.92583,1.28493 1.76749,1.28493l0.67333,0l0,3.98328c0,3.75199 0.01683,3.98328 0.37033,4.49725c0.47133,0.66816 1.31299,0.66816 1.88532,-0.0257c0.43766,-0.51397 0.43766,-0.53967 0.43766,-4.16317c0,-2.00449 0.06733,-3.80339 0.1515,-4.00898c0.101,-0.23129 0.47133,-0.38548 0.94266,-0.43688c0.87533,-0.0514 1.43082,-0.64246 1.43082,-1.54191c0,-0.95085 -0.69016,-1.46482 -2.07049,-1.54191c-3.45081,-0.25699 -4.4608,-0.25699 -4.78064,-0.0771z" fill="#06a506"/>
    <path stroke="null" id="svg_12" d="m68.81084,7.71419c-1.58232,0.74526 -2.81115,2.51846 -3.24881,4.72854c-0.69016,3.46931 1.00999,7.09281 3.70331,7.88946c2.35665,0.71956 4.49447,-1.43912 4.99947,-5.03692c0.18517,-1.25923 -0.2525,-1.64471 -2.10415,-1.876c-1.78432,-0.23129 -2.33982,0.0257 -2.33982,1.13074c0,0.77096 0.21883,0.97655 1.17833,1.15644l0.7575,0.15419l-0.84166,0.59107c-0.99316,0.66816 -1.46449,0.56537 -2.13782,-0.53967c-0.94266,-1.54191 -0.48816,-3.98328 0.87533,-4.60005c0.5555,-0.25699 0.80799,-0.23129 1.80115,0.28268c1.11099,0.53967 1.19516,0.56537 1.70016,0.15419c0.92583,-0.71956 0.87533,-2.31287 -0.101,-3.08383c-1.16149,-0.89945 -3.29931,-1.38772 -4.24197,-0.95085z" fill="#06a506"/>
   </g>
  </g>
 </g>

</svg>