<svg width="604" height="126" xmlns="http://www.w3.org/2000/svg" version="1.0" preserveAspectRatio="xMidYMid meet">
 <g>
  <title>Layer 1</title>
  <path d="m476.21368,19.8c-3.7,7.3 -3.4,9 0.3,2.3c1.7,-3 2.9,-6 2.7,-6.5c-0.2,-0.6 -1.6,1.3 -3,4.2z" id="svg_2"/>
  <path d="m476.91368,27.2c-12.8,25.2 -22.5,43 -23.1,42.4c-0.5,-0.5 3.9,-10.2 13.4,-29.5c2.8,-5.8 5,-10.7 4.9,-10.8c-0.2,-0.3 -8.9,15.6 -16.4,30c-1.4,2.6 -2.7,4.5 -2.9,4.3c-0.3,-0.2 0.5,-2.3 1.7,-4.6c1.2,-2.3 2,-4.4 1.8,-4.6c-0.4,-0.3 -8.8,15 -8.8,16c0,0.3 1.9,1 4.3,1.7c2.3,0.6 6.4,2.4 9.2,4.1c4.8,3 5.1,3 7.8,1.4c7.4,-4.2 18.1,-2.7 25.3,3.5c2.5,2.2 5.4,3.9 6.5,3.9c2.7,0 2.4,2.2 -1.2,8.5c-3.3,5.8 -3.2,7.5 0.5,7.5c1.3,0 4.9,1.4 8,3l5.7,3.1l6,-2.2c5.3,-1.9 6.5,-2.1 10.2,-1c2.3,0.7 6.5,2.5 9.2,4.1c3.6,2 5.9,2.6 8.3,2.3c1.7,-0.3 3.2,-0.9 3.2,-1.4c0,-0.5 1.7,-4.6 3.8,-9.2c3.6,-7.7 7.5,-17 10.9,-26.2c0.9,-2.2 3.5,-8.4 5.9,-13.8c2.4,-5.3 4.5,-10.2 4.7,-10.9c0.1,-0.6 -1.1,-1.4 -2.7,-1.9c-1.6,-0.4 -3.9,-1.8 -5.2,-3c-2.5,-2.3 -9.5,-3.6 -13.9,-2.5c-1.5,0.4 -3.8,1.9 -5.1,3.3c-1.3,1.4 -2.4,2.1 -2.4,1.4c0,-0.6 -1,-1.1 -2.3,-1.1c-2.7,0 -6.7,-2.6 -6.7,-4.4c0,-0.7 1.4,-4.6 3,-8.6c3.3,-7.9 3.5,-9 2,-9c-0.5,0 -1,0.6 -1,1.4c0,0.7 -0.7,1.9 -1.5,2.6c-0.8,0.7 -1.5,2.1 -1.5,3.1c0,1 -0.9,2.6 -1.9,3.6c-1.1,1 -2.1,2.9 -2.3,4.2c-0.2,2.1 -0.9,2.5 -3.6,2.5c-3.8,0.1 -2.6,-1.6 -15,21.4c-4,7.3 -7.2,13.7 -7.2,14.2c0,0.5 -0.9,1.6 -2.1,2.4c-1.2,0.8 -1.8,1.9 -1.4,2.6c0.6,0.9 0.2,0.9 -1.3,0.1c-2.6,-1.4 -2.5,-6.7 0.1,-6.5c1,0.1 1.7,-0.5 1.7,-1.7c0,-1 0.5,-2.1 1.1,-2.5c0.7,-0.4 0.8,-0.9 0.1,-1.3c-1.2,-0.7 3.9,-13.5 6.5,-16.3c0.9,-1 1.3,-1.8 0.9,-1.8c-0.4,0 1.1,-3.4 3.3,-7.6c2.3,-4.2 4.1,-8.2 4.1,-9c0,-0.7 0.6,-1.7 1.4,-2.1c0.7,-0.4 1.9,-1.9 2.6,-3.3c1.1,-2.1 1.1,-2.6 -0.5,-3.5c-1,-0.5 -3,-2 -4.6,-3.3c-4.1,-3.4 -8.7,-4.5 -10.6,-2.6c-0.9,0.8 -1.3,1.8 -0.9,2.1c0.3,0.4 -0.1,1.5 -1.1,2.5c-0.9,1.1 -1.1,1.8 -0.5,1.8c0.7,0 1.2,0.7 1.2,1.6c0,1.2 -0.6,1.5 -2.4,1c-1.4,-0.3 -2.8,-0.2 -3.1,0.4c-0.3,0.5 0,1 0.8,1c1.3,0 1.3,0.4 0.4,2.5c-0.7,1.4 -1.8,2.5 -2.6,2.5c-0.7,0 -1.1,0.6 -0.7,1.5c0.7,1.8 -2.1,8.5 -3.5,8.5c-0.7,0 -0.9,0.9 -0.6,2.1c0.7,2.4 -0.8,5.3 -4.1,8.3c-1.9,1.8 -2.1,2.5 -1.3,5.4c0.8,2.8 0.8,3.3 -0.4,2.8c-0.9,-0.3 -2.2,0.9 -3.6,3.4c-2,3.5 -2.8,4 -5.8,4.1c-5.6,0.1 -7.1,0.6 -9.7,3c-1.8,1.7 -2.4,1.9 -2.4,0.8c0,-0.8 0.5,-2 1.2,-2.7c0.9,-0.9 0.9,-1.2 0,-1.2c-0.7,0 -1.5,0.7 -1.8,1.5c-0.4,0.8 -1,1.5 -1.4,1.5c-1,0 4,-11.2 15.6,-34.6c4.6,-9.3 8.4,-17.4 8.4,-18c0,-1.1 -6.1,-5.4 -7.7,-5.4c-0.6,0 -3.7,5.1 -6.9,11.2zm47.8,31c-3.8,7.3 -10.2,19.7 -14.2,27.5c-3.9,7.9 -7.6,14.3 -8.1,14.3c-1.1,0 -1.2,-1.3 0,-2.6c0.4,-0.5 5.4,-9.8 11,-20.7c5.6,-10.9 11.2,-21.5 12.4,-23.5c1.2,-2 2.9,-4.9 3.6,-6.4c0.8,-1.6 1.6,-2.6 1.9,-2.4c0.2,0.3 -2.7,6.5 -6.6,13.8zm-0.4,-7.2c-0.7,1 -1.4,1.7 -1.7,1.5c-0.4,-0.4 1.8,-3.5 2.5,-3.5c0.2,0 -0.1,0.9 -0.8,2zm19.7,1.7c-1.4,2.7 -2.6,7.3 -2.7,10.3c-0.1,0.8 -0.9,2.1 -2,2.8c-1,0.7 -1.8,1.8 -1.8,2.5c0,0.8 0.3,0.8 1.2,-0.1c1.9,-1.9 2.4,-1.4 2.5,2.9c0.1,2.7 -0.3,4.2 -1.3,4.6c-0.7,0.3 -1.4,1.3 -1.4,2.2c0,0.9 -1.1,3.8 -2.5,6.6c-1.3,2.7 -2.5,5.4 -2.5,5.8c0,0.5 -0.6,2.3 -1.4,4c-0.8,1.8 -1.6,3.8 -1.8,4.6c-0.7,2.5 -16.6,5.7 -18.5,3.7c-0.7,-0.6 4.7,-9.6 5.8,-9.6c0.5,0 0.9,0.7 0.9,1.7c0,1.5 0.1,1.5 1.9,-0.1c1.8,-1.6 3.5,-4.8 15.5,-29.6c3.1,-6.3 6,-12.3 6.6,-13.3c1.7,-2.8 3,-1.9 1.5,1zm-23.2,4.8c-0.3,0.9 -0.8,1.4 -1,1.1c-0.3,-0.3 -0.2,-0.9 0.2,-1.5c0.9,-1.6 1.5,-1.3 0.8,0.4zm-3.2,6.2c-1.2,2 -1.4,1.4 -0.5,-1.2c0.4,-0.9 0.9,-1.4 1.1,-1.1c0.3,0.2 0,1.3 -0.6,2.3zm-66.1,4.3c0,0.5 -0.5,1 -1.1,1c-0.5,0 -0.7,-0.5 -0.4,-1c0.3,-0.6 0.8,-1 1.1,-1c0.2,0 0.4,0.4 0.4,1zm61,6.4c0,0.3 -0.4,0.8 -1,1.1c-0.5,0.3 -1,0.1 -1,-0.4c0,-0.6 0.5,-1.1 1,-1.1c0.6,0 1,0.2 1,0.4zm-4,6.4c0,0.5 -0.7,1.7 -1.5,2.8c-1.4,1.8 -1.4,1.7 -0.4,-0.9c1.2,-2.7 1.9,-3.4 1.9,-1.9zm-4,8.3c-0.7,1.1 -1.4,1.8 -1.7,1.5c-0.3,-0.3 0,-1.2 0.7,-2.1c1.8,-2.1 2.3,-1.9 1,0.6zm-3.9,7c-1.2,1.9 -2.1,3 -2.1,2.6c0,-1.4 3.1,-6.9 3.6,-6.4c0.3,0.3 -0.4,2 -1.5,3.8z" id="svg_3"/>
  <path d="m87.51367,20.5c-1.3,1.4 -1.9,2.5 -1.4,2.5c0.8,-0.1 5,-5 4.1,-5c-0.2,0 -1.4,1.1 -2.7,2.5z" id="svg_4"/>
  <path fill="#a7473b" d="m83.64699,26.36668c-3.8,5.7 -17.3,30.3 -25.6,46.8c-2.2,4.4 -4.4,9.9 -4.7,12.2c-0.6,3.9 -0.4,4.4 1.7,5.2c3.4,1.3 5.8,-0.4 5.8,-4.2c0.1,-7.4 7.7,-18 16.2,-22.3c2.6,-1.3 5.2,-2.4 5.8,-2.4c1.6,0 1.2,4.6 -0.6,6.1c-2.3,1.9 -4.4,6.4 -4.4,9.4c0,3.8 -5.4,13.8 -9.2,17c-1.8,1.6 -5.8,4 -8.8,5.4c-7.4,3.5 -21,3.7 -28.1,0.5c-9.7,-4.5 -16.4,-13.8 -17.6,-24.5c-0.7,-6.7 -1.8,-8.3 -4.5,-6.8c-1.8,1 -2,1.8 -1.6,7.8c1.8,24.4 31.9,40 55.4,28.6c13.4,-6.6 18.7,-15 20.5,-33.1c1.2,-11 1.3,-11.6 3.8,-12.6c2.9,-1.2 9.7,-1.2 11.4,-0.1c0.7,0.4 2.8,1.3 4.7,2c2.9,1 3.7,1 5,-0.2c1.3,-1.3 0.9,-1.5 -2.8,-1.5c-4.4,0 -5.8,-1.6 -1.9,-2.2c1.7,-0.3 1.2,-0.7 -2.3,-1.7c-7.7,-2.3 -19.2,-1 -27.8,3.1c-3.9,1.9 -7.2,3.3 -7.2,3.2c0,-0.2 0.5,-1.5 1.1,-3.1c0.8,-2.1 1.2,-2.4 1.9,-1.3c0.5,0.8 1.2,1.1 1.6,0.7c0.4,-0.3 0.2,-1.2 -0.4,-2c-0.8,-0.9 -0.3,-2.4 1.8,-5.9c1.6,-2.6 3.7,-5.2 4.7,-5.8c1.2,-0.8 1.3,-1 0.3,-0.7c-1.3,0.4 -1.2,-0.3 0.5,-3.9c1.3,-2.8 2.5,-4.2 3.3,-3.9c0.8,0.3 2,0.5 2.7,0.5c0.7,0 1.6,0.8 1.8,1.7c0.4,1.6 0.5,1.6 0.6,0.1c0,-0.9 -1,-2.5 -2.3,-3.6c-2.3,-1.8 -2.4,-2.1 -1,-4.1c0.9,-1.2 1.9,-1.9 2.3,-1.6c0.5,0.2 0.6,-0.7 0.3,-2.2c-0.3,-1.8 -0.1,-2.4 0.6,-1.9c0.8,0.5 1,0.2 0.6,-0.8c-0.8,-2.1 -0.8,-2.1 -3.6,2.1z" id="svg_5"/>
  <path d="m85.51367,32.4c0,0.2 0.8,1 1.8,1.7c1.5,1.3 1.6,1.2 0.3,-0.4c-1.3,-1.6 -2.1,-2.1 -2.1,-1.3z" id="svg_8"/>
  <path fill-opacity="0" fill="#a7473b" d="m89.01367,47c0.3,0.5 0.8,1 1.1,1c0.2,0 0.4,-0.5 0.4,-1c0,-0.6 -0.5,-1 -1.1,-1c-0.5,0 -0.7,0.4 -0.4,1z" id="svg_13"/>
  <path style="vector-effect: non-scaling-stroke;" fill="none" d="m77.61367,48.7c-0.9,1 -1,1.8 -0.3,2.5c0.7,0.7 1.4,0.4 2.1,-1c1.3,-2.5 0.1,-3.6 -1.8,-1.5z" id="svg_14"/>
  <path d="m458.51368,49.1c-0.7,1.1 -1,2.3 -0.7,2.5c0.2,0.2 0.9,-0.7 1.5,-2.1c1.4,-3 0.7,-3.3 -0.8,-0.4z" id="svg_15"/>
  <path fill="#a7473b" d="m80.51367,52.6c0,0.8 0.5,1.2 1,0.9c0.6,-0.4 0.8,-1.1 0.5,-1.6c-0.9,-1.4 -1.5,-1.1 -1.5,0.7z" id="svg_16"/>
  <path stroke="#a7473b" fill="none" d="m71.51367,54c0,0.5 0.5,1 1,1c0.6,0 1,-0.5 1,-1c0,-0.6 -0.4,-1 -1,-1c-0.5,0 -1,0.4 -1,1z" id="svg_17"/>
  <path d="m77.01367,56c0.3,0.5 0.8,1 1.1,1c0.2,0 0.4,-0.5 0.4,-1c0,-0.6 -0.5,-1 -1.1,-1c-0.5,0 -0.7,0.4 -0.4,1z" id="svg_18"/>
  <path stroke-opacity="0" stroke="#a7473b" fill="#a7473b" d="m112.11367,62.7c-1.4,1.5 -0.4,4.1 3,7.4c4.5,4.2 9.4,13.8 9.4,18.1c0,4.2 1.3,6.3 3.4,5.5c1.3,-0.5 1.6,-1.5 1,-4.4c-1.7,-10 -3.7,-15.9 -6.7,-19.3c-3.6,-4.1 -9.2,-8.2 -10.1,-7.3z" id="svg_19"/>
  <path stroke="#a7473b" fill="none" d="m108.51367,64.4c0,0.9 0.5,1.6 1,1.6c0.6,0 1,-0.4 1,-0.9c0,-0.6 -0.4,-1.3 -1,-1.6c-0.5,-0.3 -1,0.1 -1,0.9z" id="svg_20"/>
  <path d="m574.71368,85c-1.6,2.5 -1.5,3 0.3,3c0.9,0 1.2,-0.6 0.8,-1.7c-0.4,-1.1 -0.3,-1.4 0.5,-0.9c0.7,0.4 1.2,0.1 1.2,-0.8c0,-2.2 -1.3,-2 -2.8,0.4z" id="svg_21"/>
  <path d="m572.51368,90.9c0,1.7 1.8,2.1 2.4,0.6c0.3,-0.9 0,-1.5 -0.9,-1.5c-0.8,0 -1.5,0.4 -1.5,0.9z" id="svg_22"/>
  <path d="m570.41368,94.6c-0.7,0.9 -1.5,2.5 -1.6,3.7c-0.2,1.1 -1.4,3.5 -2.8,5.3c-2.1,2.7 -2.2,3.3 -0.9,3.8c0.9,0.3 1.9,0.6 2.4,0.6c1.3,0 5,-9.6 4.8,-12.4c-0.3,-3.1 -0.2,-3 -1.9,-1z" id="svg_23"/>
  <path d="m553.11368,107.9c-0.4,0.5 0.3,0.7 1.4,0.4c2.3,-0.6 2.6,-1.3 0.6,-1.3c-0.8,0 -1.7,0.4 -2,0.9z" id="svg_24"/>
  <path id="svg_1" d="m9.3305,68.66662c0,0 54.66618,-52.66619 54.00226,-52.66676c0.66392,0.00057 25.99702,2.66721 25.99702,2.66721" opacity="NaN" stroke="#a7473b" fill="none"/>
  <path id="svg_26" d="m12.66381,68.66662" opacity="NaN" stroke="#a7473b" fill="none"/>
  <path id="svg_27" d="m10.99656,68.66522" opacity="NaN" stroke="#a7473b" fill="none"/>
  <path id="svg_28" d="m10.98983,68.16241l2.34307,1.00201c0.15685,0.16462 0.65683,3.99782 0.65683,3.99782c0,0 1.16663,7.16643 1.00978,7.00182c0.15685,0.16462 1.6568,3.99782 1.6568,3.99782c0,0 1.49995,2.83324 1.3431,2.66863c0.15685,0.16462 1.99012,3.49784 1.99012,3.49784c0,0 1.83327,1.66661 1.99994,2.1666c0.16666,0.49998 2.1666,2.33326 2.00975,2.16864c0.15685,0.16462 1.99012,1.66457 2.32345,1.66457c0.33332,0 2.33326,1.99994 2.17641,1.83532c0.15685,0.16462 2.32345,0.99792 2.49011,1.16458c0.16666,0.16666 2.83324,0.99997 3.16656,1.33329c0.33332,0.33332 3.99987,0.66665 3.84302,0.50203c0.15685,0.16462 2.65677,0.49794 2.49992,0.33332c0.15685,0.16462 2.32345,-0.00205 2.65677,0.33128c0.33332,0.33332 2.49992,0 2.34307,-0.16462c0.15685,0.16462 3.49008,0.16462 3.65674,-0.00205c0.16666,-0.16666 2.49992,-0.33332 2.34307,-0.49794c0.15685,0.16462 3.32341,-0.00205 3.49008,-0.00205c0.16666,0 2.33326,-1.16663 2.66658,-1.16663c0.33332,0 3.16656,-1.33329 3.16656,-1.33329c0,0 3.33323,-1.49995 3.17638,-1.66457c0.15685,0.16462 3.15675,-1.502 3.15675,-1.502c0,0 1.83327,-2.1666 1.83327,-2.1666c0,0 2.49992,-2.49992 2.34307,-2.66453c0.15685,0.16462 1.82346,-2.3353 1.66661,-2.49992c0.15685,0.16462 2.32345,-2.83529 2.32345,-2.83529c0,0 1.16663,-2.9999 1.16663,-2.9999c0,0 0.83331,-2.49992 0.83331,-2.83324c0,-0.33332 0.49998,-4.16653 0.49998,-4.16653c0,0 0.66665,-2.49992 0.66665,-2.49992c0,0 1.83327,-2.9999 1.83327,-2.9999c0,0 1.83327,-2.1666 1.67642,-2.33121c0.15685,0.16462 1.49014,-1.66866 1.49014,-1.66866c0,0 0.16666,-2.49992 0.00981,-2.66453c0.15685,0.16462 -0.17647,-1.83532 -0.33332,-1.99994c0.15685,0.16462 -1.50976,0.49794 -1.66661,0.33332c0.15685,0.16462 -1.50976,1.16458 -1.66661,0.99997c0.15685,0.16462 -2.00975,1.16458 -2.1666,0.99997c0.15685,0.16462 -2.00975,1.49791 -2.1666,1.33329c0.15685,0.16462 -1.67642,1.66457 -1.83327,1.49995c0.15685,0.16462 -1.50976,1.16458 -1.66661,0.99997c0.15685,0.16462 -1.3431,1.66457 -1.49995,1.49995c0.15685,0.16462 -1.84309,1.83123 -1.99994,1.66661c0.15685,0.16462 -0.84312,1.66457 -0.99997,1.49995c0.15685,0.16462 -1.3431,1.83123 -1.49995,1.66661c0.15685,0.16462 -0.84312,1.99789 -0.99997,1.83327c0.15685,0.16462 -1.3431,2.66453 -1.49995,2.49992c0.15685,0.16462 -1.50976,2.66453 -1.66661,2.49992c0.15685,0.16462 -0.5098,2.33121 -0.66665,2.1666c0.15685,0.16462 -0.17647,2.8312 -0.33332,2.66658c0.15685,0.16462 -0.00981,2.8312 -0.16666,2.66658c0.15685,0.16462 -0.84312,2.16455 -0.99997,1.99994c0.15685,0.16462 -1.67642,1.16458 -1.83327,0.99997c0.15685,0.16462 -1.50976,0.16462 -1.66661,0" opacity="NaN" fill="#f29160"/>
  <ellipse stroke="#a7473b" ry="0.33333" rx="0.33333" id="svg_25" cy="17.00042" cx="91.6631" fill="none"/>
  <path id="svg_29" d="m29.50227,84.50102" opacity="NaN" stroke="#a7473b" fill="none"/>
  <path id="svg_30" d="m10.4863,68.24424l7.13793,-6.87193l7.87465,-7.62467l6.24973,-5.99974l5.24977,-5.12478l4.87479,-4.74979l6.24973,-6.12473l5.24977,-4.99978l8.24964,-8.12464l2.2499,-2.3749c0.11175,0.12223 3.86159,0.49721 3.86159,0.49721c0,0 4.6248,0.74997 4.6248,0.74997c0,0 6.24973,0.62497 6.24973,0.62497c0,0 6.8747,0.74997 6.76294,0.62774c0.11175,0.12223 3.86159,0.24722 3.74984,0.12499c0.11175,0.12223 -2.63812,2.49712 -2.74988,2.3749c0.11175,0.12223 -0.26323,1.74716 -0.26323,1.74716c0,0 -1.49993,1.99991 -1.49993,1.99991c0,0 -2.12491,3.24986 -2.23666,3.12763c0.11175,0.12223 -1.63817,2.87211 -1.63817,2.87211c0,0 -2.12491,3.87483 -2.23666,3.7526c0.11175,0.12223 -2.01315,3.99706 -2.12491,3.87483c0.11175,0.12223 -2.13815,4.49704 -2.2499,4.37481c0.11175,0.12223 -2.76312,4.49704 -2.87487,4.37481c0.11175,0.12223 -1.88816,4.12205 -1.99991,3.99982c0.11175,0.12223 -2.01315,4.24705 -2.12491,4.12482c0.11175,0.12223 -2.51313,4.87202 -2.62488,4.74979c0.11175,0.12223 -1.63817,3.24709 -1.74992,3.12486c0.11175,0.12223 -2.13815,5.247 -2.2499,5.12478c0.11175,0.12223 -3.01311,4.87202 -3.12486,4.74979c0.11175,0.12223 -1.51318,4.49704 -1.51318,4.49704c0,0 -2.3749,5.74975 -2.48665,5.62752c0.11175,0.12223 -0.38823,3.37209 -0.49998,3.24986c0.11175,0.12223 0.23675,2.62212 0.12499,2.49989c0.11175,0.12223 -4.38805,-2.00268 -4.4998,-2.12491c0.11175,0.12223 -7.63791,-3.87759 -7.63791,-3.87759c0,0 -10.62453,-5.37476 -10.73629,-5.49699c0.11175,0.12223 -10.88777,-5.50252 -10.99952,-5.62475c0.11175,0.12223 -5.01302,-2.37766 -5.12478,-2.49989c0.11175,0.12223 -1.51318,-0.75273 -1.51318,-0.75273c0,0 -0.99996,-0.74997 -0.99996,-0.74997" opacity="NaN" fill="#f29160"/>
  <g id="svg_31">
   <path fill="#06a506" d="m143.51367,31.8c-0.8,0.2 -2.5,1.4 -3.7,2.5c-2.2,2 -2.3,2.7 -2.3,17.7l0,15.7l2.9,4c3.7,5.1 8.5,8.1 15.3,9.5c11.9,2.5 24.3,-5.1 26.7,-16.2c1.4,-6.6 1.4,-25.5 0,-28.2c-1.1,-2 -6.5,-4.8 -9.4,-4.8c-0.9,0 -2.6,1 -3.8,2.2c-2,2.1 -2.3,3.4 -2.6,15.8c-0.1,7.4 -0.7,14 -1.2,14.6c-0.5,0.7 -2.4,1.8 -4.1,2.5c-2.9,1.2 -3.2,1.1 -5.4,-1.5c-2.3,-2.5 -2.4,-3.5 -2.4,-15.6c0,-12.7 0,-12.9 -2.6,-14.9c-1.5,-1.2 -3.2,-2.1 -4,-2.1c-0.7,0 -1.4,-0.4 -1.6,-0.9c-0.1,-0.4 -1,-0.6 -1.8,-0.3z" id="svg_6"/>
   <path fill="#06a506" d="m348.51368,32.1c-7.1,0.8 -12.6,3.6 -17.6,9.1c-8.1,8.7 -9.3,18.5 -3.6,27.8c3,5 10.3,10.4 16,12c8.7,2.4 21.4,0.4 29.4,-4.6c3,-1.9 3.8,-3 3.8,-5.3c0,-3.4 -1.6,-5.3 -5.9,-7.1c-2.8,-1.1 -3.8,-1 -9.2,1.5c-5.8,2.6 -10.9,2.8 -10.9,0.6c0,-0.9 7.3,-6.2 20.2,-14.8c3.1,-2.1 5.7,-4.4 5.8,-5.1c0.2,-7.2 -16.1,-15.5 -28,-14.1zm8.6,13.4c0.5,1.5 -13.6,11.7 -15.2,11.1c-1.9,-0.7 -1.7,-4.6 0.4,-7.4c3,-3.9 14,-6.7 14.8,-3.7z" id="svg_7"/>
   <path d="m208.11367,34c-5.3,2.7 -8.4,5.7 -10.9,10.5c-1.7,3.3 -2.2,6.2 -2.5,17.6c-0.4,13.3 -0.4,13.6 2.1,16.4c2,2.4 3.3,3 6.7,3c7.1,0 8,-2.1 8,-18.1c0,-12.4 0.1,-13.5 2.2,-15.4c2.8,-2.5 6.2,-2.6 8.8,0c1.8,1.8 2,3.3 2,15.5c0,13.1 0.1,13.7 2.5,16c3.5,3.6 11.3,2.8 13.1,-1.4c0.4,-0.9 0.9,-7.5 1.2,-14.6c0.5,-14.3 -0.2,-17.3 -5.2,-23.2c-3.1,-3.7 -11.2,-7 -18.9,-7.8c-4,-0.4 -6.1,-0.1 -9.1,1.5z" id="svg_9" fill="#06a506"/>
   <path fill="#06a506" d="m256.11367,34.2c-2.5,2.3 -2.5,2.6 -3.2,22l-0.7,19.6l2.6,2.6c4.2,4.2 11.4,3.1 13.6,-2.1c0.8,-1.9 1.1,-8.8 0.9,-21.3l-0.3,-18.4l-4,-2.3c-5,-2.8 -5.8,-2.8 -8.9,-0.1z" id="svg_10"/>
   <path fill="#06a506" d="m280.81367,33.1c-3,1.1 -5.6,5.3 -4.8,7.9c0.9,2.8 5.5,5 10.5,5l4,0l0,15.5c0,14.6 0.1,15.5 2.2,17.5c2.8,2.6 7.8,2.6 11.2,-0.1c2.6,-2 2.6,-2.1 2.6,-16.2c0,-7.8 0.4,-14.8 0.9,-15.6c0.6,-0.9 2.8,-1.5 5.6,-1.7c5.2,-0.2 8.5,-2.5 8.5,-6c0,-3.7 -4.1,-5.7 -12.3,-6c-20.5,-1 -26.5,-1 -28.4,-0.3z" id="svg_11"/>
   <path fill="#06a506" d="m405.51368,32.9c-9.4,2.9 -16.7,9.8 -19.3,18.4c-4.1,13.5 6,27.6 22,30.7c14,2.8 26.7,-5.6 29.7,-19.6c1.1,-4.9 -1.5,-6.4 -12.5,-7.3c-10.6,-0.9 -13.9,0.1 -13.9,4.4c0,3 1.3,3.8 7,4.5l4.5,0.6l-5,2.3c-5.9,2.6 -8.7,2.2 -12.7,-2.1c-5.6,-6 -2.9,-15.5 5.2,-17.9c3.3,-1 4.8,-0.9 10.7,1.1c6.6,2.1 7.1,2.2 10.1,0.6c5.5,-2.8 5.2,-9 -0.6,-12c-6.9,-3.5 -19.6,-5.4 -25.2,-3.7z" id="svg_12"/>
  </g>
 </g>

</svg>